# xmcd
#
# Track frame offsets: 
#        150
#        13596
#        29573
#        43438
#        59155
#        76361
#        95977
#        111847
#        129666
#        142420
#        156655
#        172683
#        184340
#        200251
#
# Disc length: 2852 seconds
#
# Revision: 1
# Processed by: cddbd v1.5.2PL0 Copyright (c) Steve Scherf et al.
# Submitted via: ExactAudioCopy v0.95b4
#
DISCID=da0b220e
DTITLE=Truck Stop - Asphaltfieber CD-1
DYEAR=2004
DGENRE=Country
TTITLE0=Take it easy, altes Haus
TTITLE1=Ich möcht' so gern Dave Dudley hör'n
TTITLE2=Asphaltfieber
TTITLE3=Ich steh' auf Jeans und Country Music
TTITLE4=Old Texas Town, die Westernstadt
TTITLE5=Nein danke, ich rauch nicht mehr
TTITLE6=Hannas Mann
TTITLE7=Amerika
TTITLE8=Ich und mein Diesel
TTITLE9=Nashville Tennessee
TTITLE10=Der Roadie von der Country Band
TTITLE11=Bleifuss Joe
TTITLE12=Kopf oder Zahl (Geh'n wir nun zu dir oder mir)
TTITLE13=Hillybilly, Country Lilly
EXTD=
EXTT0=
EXTT1=
EXTT2=
EXTT3=
EXTT4=
EXTT5=
EXTT6=
EXTT7=
EXTT8=
EXTT9=
EXTT10=
EXTT11=
EXTT12=
EXTT13=
PLAYORDER=
